<svg xmlns="http://www.w3.org/2000/svg" xmlns:xlink="http://www.w3.org/1999/xlink" width="157" height="25" viewBox="0 0 157 25">
  <defs>
    <clipPath id="clip-logo">
      <rect width="157" height="25"/>
    </clipPath>
  </defs>
  <g id="logo" clip-path="url(#clip-logo)">
    <g id="diseño" transform="translate(-102.29 -87.96)">
      <g id="Grupo_1965" data-name="Grupo 1965" transform="translate(114.29 87.96)">
        <path id="Trazado_1228" data-name="Trazado 1228" d="M328.759,125.326a5.461,5.461,0,1,0-10.921,0v8.021a.587.587,0,0,0,.586.588h1.171a.586.586,0,0,0,.586-.588v-2.5a.588.588,0,0,1,.843-.526,5.528,5.528,0,0,0,6.141-1.125,5.284,5.284,0,0,0,1.594-3.871m-2.341,0a3.127,3.127,0,1,1-.914-2.213,3.017,3.017,0,0,1,.914,2.213" transform="translate(-273.019 -112.826)" fill="#545860"/>
        <path id="Trazado_1229" data-name="Trazado 1229" d="M471.678,106.218v2.495a.588.588,0,0,1-.843.526,5.512,5.512,0,1,0,3.184,5v-8.021a.587.587,0,0,0-.586-.588h-1.171a.585.585,0,0,0-.583.588m0,8.019a3.127,3.127,0,1,1-.914-2.213,3.017,3.017,0,0,1,.914,2.213" transform="translate(-386.294 -101.739)" fill="#545860"/>
        <path id="Trazado_1230" data-name="Trazado 1230" d="M530.7,125.316a5.458,5.458,0,1,0-1.6,3.877,5.291,5.291,0,0,0,1.6-3.877m-2.341,0a3.124,3.124,0,1,1-.914-2.213,3.017,3.017,0,0,1,.914,2.213" transform="translate(-430.494 -112.818)" fill="#545860"/>
        <path id="Trazado_1231" data-name="Trazado 1231" d="M263.5,125.318a3.12,3.12,0,1,0,6.24,0v-4.89a.587.587,0,0,1,.586-.588h1.171a.586.586,0,0,1,.586.588v4.89a5.461,5.461,0,1,1-10.921,0v-4.89a.587.587,0,0,1,.586-.588h1.169a.586.586,0,0,1,.586.588v4.89Z" transform="translate(-228.819 -112.82)" fill="#545860"/>
        <path id="Trazado_1232" data-name="Trazado 1232" d="M586.209,128.726a5.862,5.862,0,0,1-.427.478,5.461,5.461,0,0,1-9.325-3.875v-4.89a.587.587,0,0,1,.586-.588h1.169a.586.586,0,0,1,.586.588v4.89a3.12,3.12,0,1,0,6.24,0v-4.89a.587.587,0,0,1,.586-.588h1.169a.586.586,0,0,1,.586.588v4.89a3.12,3.12,0,1,0,6.24,0v-4.89a.587.587,0,0,1,.586-.588h1.169a.586.586,0,0,1,.586.588v4.89a5.46,5.46,0,0,1-9.325,3.875,5.907,5.907,0,0,1-.425-.478Z" transform="translate(-474.694 -112.828)" fill="#545860"/>
        <path id="Trazado_1233" data-name="Trazado 1233" d="M673.882,130.8h-1.169a.586.586,0,0,1-.586-.588v-4.89a5.461,5.461,0,1,1,10.921,0v4.89a.587.587,0,0,1-.586.588h-1.172a.586.586,0,0,1-.586-.588v-4.89a3.12,3.12,0,1,0-6.24,0v4.89a.582.582,0,0,1-.583.586" transform="translate(-549.299 -112.826)" fill="#545860"/>
        <path id="Trazado_1234" data-name="Trazado 1234" d="M377.451,111.116a.586.586,0,0,0-.586.588v2.543a3.144,3.144,0,0,0,2.627,3.1.6.6,0,0,1,.493.6v1.169a.591.591,0,0,1-.661.583,5.482,5.482,0,0,1-4.8-5.447v-8.021a.587.587,0,0,1,.586-.588h1.171a.586.586,0,0,1,.586.588v1.957a.587.587,0,0,0,.586.588h1.951a.586.586,0,0,1,.586.588v1.174a.587.587,0,0,1-.586.588h-1.955Z" transform="translate(-317.226 -101.747)" fill="#545860"/>
        <path id="Trazado_1235" data-name="Trazado 1235" d="M415.732,121.44a5.5,5.5,0,1,0,1.6,3.877A5.259,5.259,0,0,0,415.732,121.44Zm-1.658,6.088a3.136,3.136,0,1,1,.914-2.213A3,3,0,0,1,414.074,127.529Z" transform="translate(-342.087 -112.818)" fill="#545860"/>
        <g id="Grupo_1964" data-name="Grupo 1964" transform="translate(0 0)">
          <path id="Trazado_1236" data-name="Trazado 1236" d="M156.588,95.435a1.015,1.015,0,0,0,1.436,0l2.871-2.871a1.015,1.015,0,0,0,0-1.436l-2.871-2.871a1.015,1.015,0,0,0-1.436,0l-2.871,2.871a1.015,1.015,0,0,0,0,1.436Z" transform="translate(-144.804 -87.96)" fill="#00aad5"/>
          <path id="Trazado_1237" data-name="Trazado 1237" d="M138.993,130.248l-2.871-2.871a1.015,1.015,0,0,0-1.436,0l-2.871,2.871a1.015,1.015,0,0,1-1.436,0l-2.871-2.871a1.015,1.015,0,0,0-1.436,0l-2.871,2.871a1.015,1.015,0,0,1-1.436,0l-2.871-2.871a1.015,1.015,0,0,0-1.436,0l-2.871,2.871a1.015,1.015,0,0,0,0,1.436l3.589,3.589,4.307,4.307,3.589,3.589a1.015,1.015,0,0,0,1.436,0l3.589-3.589,4.307-4.307,3.589-3.589A1.015,1.015,0,0,0,138.993,130.248Z" transform="translate(-114.29 -118.466)" fill="#00aad5"/>
        </g>
      </g>
    </g>
  </g>
</svg>
